<?xml version="1.0" encoding="UTF-8"?>
<svg id="Ebene_1" data-name="Ebene 1" xmlns="http://www.w3.org/2000/svg" version="1.1" viewBox="0 0 18 18">
  <defs>
    <style>
      .cls-1 {
        fill: #76a426;
      }

      .cls-1, .cls-2 {
        stroke-width: 0px;
      }

      .cls-2 {
        fill: #76a526;
        fill-rule: evenodd;
      }
    </style>
  </defs>
  <path class="cls-2" d="M16,9c0,3.9-3.1,7-7,7s-7-3.1-7-7,3.1-7,7-7,7,3.1,7,7ZM18,9c0,5-4,9-9,9S0,14,0,9,4,0,9,0s9,4,9,9Z"/>
  <path class="cls-1" d="M7.7,13.4c0,0,0-.1-.1-.2-1.1-1.4-2.1-2.9-3.2-4.3-.1-.1,0-.2,0-.3.5-.3.9-.7,1.3-1,.2-.1.2-.1.4,0,.5.7,1,1.3,1.4,2,.2.3.3.2.4,0,1.3-1.6,2.6-3.3,3.9-4.9.2-.2.2-.2.4,0,.4.4.8.7,1.3,1,.1,0,.2.2,0,.3-1.9,2.4-3.8,4.9-5.8,7.3,0,0,0,0-.1.1Z"/>
</svg>