<?xml version="1.0" encoding="UTF-8"?>
<svg id="Ebene_1" data-name="Ebene 1" xmlns="http://www.w3.org/2000/svg" version="1.1" viewBox="0 0 18 18">
  <defs>
    <style>
      .cls-1 {
        fill-rule: evenodd;
      }

      .cls-1, .cls-2 {
        fill: #959595;
        stroke-width: 0px;
      }
    </style>
  </defs>
  <path class="cls-1" d="M16,9c0,3.9-3.1,7-7,7s-7-3.1-7-7,3.1-7,7-7,7,3.1,7,7ZM18,9c0,5-4,9-9,9S0,14,0,9,4,0,9,0s9,4,9,9Z"/>
  <path class="cls-2" d="M7.9,10.5l-.3-6.1c0,0,0-.1.1-.1h2.5c0,0,.1,0,.1.1l-.3,6.1c0,0,0,.1-.1.1h-1.8c0,0-.1,0-.1-.1ZM7.7,11.7c0,0,0-.1.1-.1h2.2c0,0,.1,0,.1.1v2c0,0,0,.1-.1.1h-2.2c0,0-.1,0-.1-.1v-2Z"/>
</svg>