<?xml version="1.0" encoding="UTF-8"?>
<svg id="Ebene_1" data-name="Ebene 1" xmlns="http://www.w3.org/2000/svg" version="1.1" viewBox="0 0 18 18">
  <defs>
    <style>
      .cls-1 {
        fill-rule: evenodd;
      }

      .cls-1, .cls-2 {
        fill: #bc2e48;
        stroke-width: 0px;
      }
    </style>
  </defs>
  <path class="cls-1" d="M16,9c0,3.9-3.1,7-7,7s-7-3.1-7-7,3.1-7,7-7,7,3.1,7,7ZM18,9c0,5-4,9-9,9S0,14,0,9,4,0,9,0s9,4,9,9Z"/>
  <path class="cls-2" d="M7.1,8.3c.3.5.6,1,1,1.5.4.5,1,.9,1.6,1.2,0,0,0,0,.1,0,0,0,.1,0,.2-.1,0,0,.1-.1.2-.2.3-.3.6-.8,1.1-.6,0,0,0,0,0,0l1.5.9s0,0,0,0c.2.1.3.4.3.6,0,.2,0,.5-.2.8-.2.3-.4.5-.7.7-.3.1-.6.2-.9.2-.5,0-.9,0-1.4-.1-.5-.1-.9-.4-1.4-.7h0c-.2-.2-.5-.3-.7-.5-.9-.7-1.8-1.6-2.4-2.7-.5-.9-.8-1.8-.6-2.8,0-.5.3-1,.7-1.3.3-.3.8-.4,1.3-.4,0,0,.1,0,.2,0l1,1.7c.1.2.2.4,0,.6,0,.2-.2.3-.4.4,0,0-.1,0-.2.1-.2.2-.5.3-.4.6h0Z"/>
</svg>