<?xml version="1.0" encoding="UTF-8"?>
<svg id="Ebene_1" data-name="Ebene 1" xmlns="http://www.w3.org/2000/svg" version="1.1" viewBox="0 0 18 18">
  <defs>
    <style>
      .cls-1 {
        fill: #ac009f;
      }

      .cls-1, .cls-2 {
        stroke-width: 0px;
      }

      .cls-2 {
        fill: #ad00a0;
        fill-rule: evenodd;
      }
    </style>
  </defs>
  <path class="cls-2" d="M16,9c0,3.9-3.1,7-7,7s-7-3.1-7-7,3.1-7,7-7,7,3.1,7,7ZM18,9c0,5-4,9-9,9S0,14,0,9,4,0,9,0s9,4,9,9Z"/>
  <path class="cls-1" d="M6.9,9.7c.5.5,1.1.9,1.6,1.4.1.1.2.2,0,.3-.2.2-.4.5-.7.8,0,0-.1.1-.2,0-1.2-1.1-2.4-2.1-3.7-3.2,0,0,0-.1,0-.2,1.2-1,2.3-2.1,3.5-3.1,0,0,.1,0,.2,0,.2.3.5.5.7.8.1.1,0,.2,0,.2-.5.5-1,.9-1.6,1.4,0,0,.2,0,.3,0,2.2,0,4.5,0,6.7,0,.2,0,.3,0,.3.3,0,.3,0,.6,0,.9,0,.2,0,.2-.2.2-1.2,0-2.4,0-3.5,0-1,0-2.1,0-3.1,0,0,0-.2,0-.3,0,0,0,0,0,0,0Z"/>
</svg>