<?xml version="1.0" encoding="UTF-8"?>
<svg id="Ebene_1" data-name="Ebene 1" xmlns="http://www.w3.org/2000/svg" version="1.1" viewBox="0 0 18 18">
  <defs>
    <style>
      .cls-1 {
        fill: #959595;
        fill-rule: evenodd;
      }

      .cls-1, .cls-2 {
        stroke-width: 0px;
      }

      .cls-2 {
        fill: #949494;
      }
    </style>
  </defs>
  <path class="cls-1" d="M16,9c0,3.9-3.1,7-7,7s-7-3.1-7-7,3.1-7,7-7,7,3.1,7,7ZM18,9c0,5-4,9-9,9S0,14,0,9,4,0,9,0s9,4,9,9Z"/>
  <path class="cls-2" d="M12.4,6.9s0,0-.1.1c-.6.6-1.2,1.2-1.8,1.8-.1.1-.2.2,0,.4.6.6,1.2,1.2,1.8,1.8.1.1.1.2,0,.3-.3.3-.7.6-1,1-.1.1-.2.1-.3,0-.6-.6-1.2-1.2-1.8-1.8-.2-.2-.2-.1-.4,0-.6.6-1.2,1.2-1.8,1.8-.1.1-.2.1-.3,0-.3-.3-.7-.7-1-1-.1-.1-.2-.2,0-.4.6-.6,1.2-1.2,1.8-1.8.1-.1.1-.2,0-.3-.6-.6-1.2-1.2-1.8-1.8-.1-.1-.1-.2,0-.3.3-.3.7-.7,1-1,.1-.1.2-.1.3,0,.6.6,1.2,1.2,1.8,1.8.1.1.2.1.3,0,.6-.6,1.2-1.2,1.8-1.8.1-.1.2-.1.3,0,.3.4.7.7,1,1,0,0,0,0,.1.2Z"/>
</svg>